<svg xmlns="http://www.w3.org/2000/svg" width="130" height="127" fill="none">
  <defs>
    <linearGradient id="textGradient" x1="0%" y1="0%" x2="100%" y2="100%">
      <stop offset="0%" stop-color="#f9e79f" />
      <stop offset="20%" stop-color="#f1c40f" />
      <stop offset="40%" stop-color="#f7f56f" />
      <stop offset="45%" stop-color="#f2f26f" />
      <stop offset="80%" stop-color="#d4ac0d" />
      <stop offset="100%" stop-color="#b7950b" />
    </linearGradient>
    <linearGradient id="bgGradient" x1="0%" y1="0%" x2="100%" y2="100%">
      <stop offset="0%" stop-color="#1a365d" />
      <!-- blue-900 oscuro -->
      <stop offset="50%" stop-color="#2d3748" />
      <!-- gray-700 azulado -->
      <stop offset="100%" stop-color="#1a202c" />
    </linearGradient>
    <filter id="textDropShadow" x="-20%" y="-20%" width="140%" height="140%">
      <feDropShadow
        dx="1"
        dy="1.5"
        stdDeviation="0.2"
        flood-opacity="1"
        flood-color="rgb(60, 0, 30)"
      />
    </filter>
  </defs>
  <path
    fill="url(#bgGradient)"
    d="M130 67a60 60 0 1 1-120 0 60 60 0 0 1 120 0Z"
  />
  <path
    fill="url(#textGradient)"
    filter="url(#textDropShadow)"
    transform="scale(1.006)"
    d="M6.5 115.4c-4 0-6.1-1.3-6.1-4 0-1.8.6-3.2 1.7-4-.3.8-.4 1.7-.4 2.5 0 2.5 1.7 3.7 5.1 3.7 5.8 0 12.6-2.9 20.4-8.7a24 24 0 0 1-4.7-3c-7.1 5.6-12.4 8.4-15.7 8.4-1.3 0-2-.4-2-1.1 0-.6.4-1 1.1-1l.8.2.6.1c3.3 0 8-2.5 14.3-7.4-2.8-2.7-4.2-5.5-4.2-8.3 0-6 5.5-11.3 16.5-16A104.3 104.3 0 0 1 50 72.3l3.1-4.1a55 55 0 0 0 2.5-3.8c-.3-2.3-.4-4.1-.4-5.6 0-5.3 1-8 3-8 1.1 0 2 1.3 2.7 4a56 56 0 0 0 3.1-5 238.2 238.2 0 0 0 15.7-37.2 7 7 0 0 1 1.2-2l.1.5c0 6.5-5.9 20.8-17.8 42.9a7 7 0 0 1 2.9-1c.5 0 .7.4.7 1 0 2.2-3.4 6-10.2 11.2a43.5 43.5 0 0 1-4.7 6.8c1.8-.3 4-.6 6.4-.7a263.4 263.4 0 0 0 18.9-30.8c7.5-14 11.3-24.4 11.3-31.4 0-4.1-1.9-6.5-5.5-7-.8-.3-1.2-.5-1.2-.9 0-.5.5-.7 1.4-.7 3.3 0 5.9 1 7.7 3.2 1.8 2 2.7 4.7 2.7 8 0 7.5-3.6 17.7-10.6 30.6a196.9 196.9 0 0 1-18.7 28.5 539.1 539.1 0 0 1 22.5-1.2c.5 0 .8.1.8.4 0 .8-.9 1.3-2.6 1.5a305.3 305.3 0 0 0-16 1.2c-2.6.1-4.8.4-6.8.6A177 177 0 0 1 31 105c2.2 1.1 6.2 2.2 12 3.2.8.1 1.1.4 1.1.8s-.4.6-1.2.6c-3.8 0-8.2-1.2-13.3-3.5a42 42 0 0 1-23 9.4Zm101.4-8.3a16 16 0 0 1-9.8-4 24.9 24.9 0 0 1-7.2-9 44 44 0 0 1-2.8-17.8c0-2.3.3-6.5 1-12.4.7-6 1.5-14 2.3-23.6l1.2-13c0-1.5.3-2.3.9-2.3.9 0 1.4.9 1.4 2.8v21.5c0 23.4 1.9 39.6 5.7 48.5 2.3 5.3 5 8 8 8 4.1 0 8.5-4 13.4-11.7 0 1.6-1 3.6-2.8 6a19 19 0 0 1-5 5.1 12.8 12.8 0 0 1-6.3 1.8Zm-79.2-3.3A175 175 0 0 0 56 74.3a62.4 62.4 0 0 0-7.5 1.8 191.2 191.2 0 0 1-23.8 24c.4.6 1 1.3 1.7 1.9l2.3 1.8ZM24 99.2a218.3 218.3 0 0 0 22.4-22.4A55.5 55.5 0 0 0 32 83.7c-5.8 3.8-8.7 7.8-8.7 11.9a9 9 0 0 0 .8 3.6Z"
  />
</svg>
